<svg xmlns="http://www.w3.org/2000/svg" xmlns:xlink="http://www.w3.org/1999/xlink" xmlns:svgjs="http://svgjs.com/svgjs" class="" style="enable-background:new 0 0 512 512" viewBox="0 0 53.545 53.545" x="0" y="0" width="512" height="512" xml:space="preserve"><g>
<g>
	<g>
		<circle class="" style="" fill="#ea1313" cx="26.686" cy="4.507" r="4.507" data-original="#010002"></circle>
		<path class="" style="" fill="#ea1313" d="M 28.256 11.163 c -1.123 -0.228 -2.344 -0.218 -3.447 0.042 c -7.493 0.878 -9.926 9.551 -9.239 16.164 c 0.298 2.859 4.805 2.889 4.504 0 c -0.25 -2.41 -0.143 -6.047 1.138 -8.632 c 0 3.142 0 6.284 0 9.425 c 0 0.111 0.011 0.215 0.016 0.322 c -0.003 0.051 -0.015 0.094 -0.015 0.146 c 0 7.479 -0.013 14.955 -0.322 22.428 c -0.137 3.322 5.014 3.309 5.15 0 c 0.242 -5.857 0.303 -11.717 0.317 -17.578 c 0.244 0.016 0.488 0.016 0.732 0.002 c 0.015 5.861 0.074 11.721 0.314 17.576 c 0.137 3.309 5.288 3.322 5.15 0 c -0.309 -7.473 -0.32 -14.949 -0.32 -22.428 c 0 -0.232 -0.031 -0.443 -0.078 -0.646 c -0.007 -3.247 -0.131 -6.497 -0.093 -9.742 c 1.534 2.597 1.674 6.558 1.408 9.125 c -0.302 2.887 4.206 2.858 4.504 0 C 38.678 20.617 36.128 11.719 28.256 11.163 Z" data-original="#010002"></path>
	</g>
</g>
<g>
</g>
<g>
</g>
<g>
</g>
<g>
</g>
<g>
</g>
<g>
</g>
<g>
</g>
<g>
</g>
<g>
</g>
<g>
</g>
<g>
</g>
<g>
</g>
<g>
</g>
<g>
</g>
<g>
</g>
</g></svg>