<svg id="Layer_1" data-name="Layer 1" xmlns="http://www.w3.org/2000/svg" viewBox="0 0 500 124.49"><defs><style>.cls-1,.cls-2{fill:#ee1c2e;}.cls-2{fill-rule:evenodd;}</style></defs><title>MH_Logo</title><path d="M72.88,71.83l-.33.33C70.37,72,67,72,62.39,72s-8.08.07-10.15.2l-.3-.3V69.62l.33-.33A34.91,34.91,0,0,0,56.13,69a1.42,1.42,0,0,0,1.12-1.22,73.21,73.21,0,0,0,.43-10.22V35.24L50.33,50.3Q49.7,51.56,46,59.53L40,72.72H37.8q-1.71-4.09-4.65-10.32l-4.61-9.79-8.64-18V57.52a74.89,74.89,0,0,0,.43,10.22A1.42,1.42,0,0,0,21.45,69a35.21,35.21,0,0,0,3.86.33l.33.33v2.24l-.33.3Q21.52,72,18.25,72q-3.78,0-7.61.2l-.33-.3V69.62l.33-.33A35.21,35.21,0,0,0,14.5,69a1.44,1.44,0,0,0,1.12-1.22,74.89,74.89,0,0,0,.43-10.22V40.08a74.71,74.71,0,0,0-.43-10.21,1.46,1.46,0,0,0-1.12-1.23c-.33-.08-1.62-.19-3.86-.33L10.31,28V25.74l.33-.29c2.29.13,5.17.2,8.67.2q4,0,7-.2,1.09,2.51,3.1,7.05l2.11,4.55L42,59l5-10.22L55,31.91c.92-2,1.82-4.16,2.7-6.46,2.48.13,4.15.2,5,.2,4.31,0,7.6-.07,9.89-.2l.33.29V28l-.33.29c-2.24.14-3.53.25-3.86.33a1.45,1.45,0,0,0-1.12,1.23,73,73,0,0,0-.43,10.21V57.52a73.21,73.21,0,0,0,.43,10.22A1.42,1.42,0,0,0,68.69,69a35.21,35.21,0,0,0,3.86.33l.33.33Z"/><path class="cls-1" d="M302.43,73l-.33.33c-2.17-.13-5.56-.19-10.15-.19s-8.09.06-10.15.19l-.33-.29V70.75l.36-.33c2.24-.14,3.53-.25,3.86-.33a1.46,1.46,0,0,0,1.12-1.22,75,75,0,0,0,.43-10.22V50.7q-1.68-.16-10.68-.16-8.31,0-10.95.16v7.95A73.31,73.31,0,0,0,266,68.87a1.45,1.45,0,0,0,1.12,1.22c.33.08,1.62.19,3.86.33l.33.33V73l-.3.33q-3.3-.19-10.15-.19c-4.73,0-8.11.06-10.16.19l-.33-.29V70.75l.33-.33c2.24-.14,3.53-.25,3.86-.33a1.45,1.45,0,0,0,1.12-1.22,73.31,73.31,0,0,0,.43-10.22V41.21A73.21,73.21,0,0,0,255.72,31a1.43,1.43,0,0,0-1.12-1.22,35.21,35.21,0,0,0-3.86-.33l-.33-.33V26.87l.33-.3q3.16.2,10.16.2c4.76,0,8.15-.07,10.15-.2l.3.3v2.27l-.33.3a35.21,35.21,0,0,0-3.86.33A1.43,1.43,0,0,0,266,31a73.21,73.21,0,0,0-.43,10.22v5.44q3.5.16,9.63.16,9.61,0,12-.16V41.21A74.89,74.89,0,0,0,286.81,31a1.45,1.45,0,0,0-1.12-1.22,35.21,35.21,0,0,0-3.86-.33l-.36-.33V26.87l.33-.3q3.19.2,10.15.2,7.19,0,10.15-.2l.33.3v2.27l-.29.3a33.85,33.85,0,0,0-3.89.33A1.42,1.42,0,0,0,297.13,31a73.21,73.21,0,0,0-.43,10.22V58.65a73.31,73.31,0,0,0,.43,10.22,1.43,1.43,0,0,0,1.12,1.22c.33.08,1.61.19,3.85.33l.33.33Z"/><path class="cls-1" d="M343.93,72.92l-.33.33c-3.3-.11-5.37-.16-6.23-.16s-1.8,0-3.23.08-2.49.08-3.2.08l-.26-.26c.18-1.8.26-3.52.26-5.15a78.4,78.4,0,0,0-6,5.48,12.62,12.62,0,0,1-4.58.82,9.83,9.83,0,0,1-7-2.42c-1.72-1.62-2.57-3.94-2.57-7,0-.38,0-1.17.06-2.38s.07-2.37.07-3.49V54.66q0-6.52-.49-7.58a1.76,1.76,0,0,0-1.42-.83c-.27,0-1.23-.1-2.9-.16l-.33-.33V43.91l.33-.36a55.59,55.59,0,0,0,12.75-2.74l.73.43q-.44,5.48-.43,10.12v6.43a41.07,41.07,0,0,0,.3,6.16A4.74,4.74,0,0,0,321,67a5,5,0,0,0,3.32,1,6.75,6.75,0,0,0,4.51-1.65,5.31,5.31,0,0,0,1.95-3.76q.06-1.62.06-2v-5.9q0-6.46-.49-7.58a1.65,1.65,0,0,0-1.39-.83c-.26,0-1.23-.1-2.9-.16l-.36-.33V43.91l.36-.36a56.12,56.12,0,0,0,12.76-2.74l.69.43q-.42,4.95-.42,10.12V61.71q0,7,.39,7.88a1,1,0,0,0,.66.6,20.71,20.71,0,0,0,3.43.39l.36.33Z"/><path class="cls-1" d="M380.22,56.74q0,11.66-7.84,15.79a18.53,18.53,0,0,1-8.74,2q-7.59,0-11.55-4.39t-4-12.56q0-11.31,7.72-15.06a19.86,19.86,0,0,1,8.8-1.85q10.51,0,13.94,7.29A20.52,20.52,0,0,1,380.22,56.74Zm-9.13,2.7q0-8.2-1.8-11.75a5.8,5.8,0,0,0-5.48-3.55q-6.57,0-6.57,11.84,0,15.2,7.36,15.19c3,0,5-1.68,5.83-5A28.23,28.23,0,0,0,371.09,59.44Z"/><path class="cls-1" d="M422.54,73l-.33.37c-2.41-.16-4.46-.23-6.13-.23s-3.78.07-6.72.23L409,73q.59-7.35.59-11.34V55.19q0-8.05-5.8-8a5.81,5.81,0,0,0-4.75,2.08,5.54,5.54,0,0,0-1.45,3.53v6.16c0,5.69.14,9.19.43,10.48.18.77,1.45,1.18,3.82,1.22l.34.33v2l-.34.33c-1.86-.13-4.66-.19-8.37-.19-3.93,0-6.93.07-9,.23l-.33-.33V71l.33-.33a12,12,0,0,0,3.93-.5c.43-.2.68-.72.72-1.58.15-2.86.23-5.92.23-9.2V54.66c0-4.4-.16-6.92-.49-7.58a1.76,1.76,0,0,0-1.42-.83c-.26,0-1.22-.1-2.87-.16l-.33-.33V43.91l.33-.36a57,57,0,0,0,12.49-2.74l.73.43-.07,5.54L403.42,42a12.59,12.59,0,0,1,4.78-.89c3.5,0,6.11,1.06,7.85,3.17q2.11,2.56,2.11,7.55c0,.37,0,1.9-.13,4.58s-.13,4.59-.13,5.73q0,5,.16,6.35c.11.91.36,1.49.76,1.73a9.39,9.39,0,0,0,3.43.43l.29.33Z"/><path class="cls-1" d="M460.58,75.36a13.94,13.94,0,0,1-5.39,11.51q-5.38,4.27-14.09,4.28-6.83,0-10.8-2.55a7.86,7.86,0,0,1-4-6.88,6.51,6.51,0,0,1,1.29-4.38c.09-.11,1.25-.84,3.49-2.18,1.08-.64,1.87-1.08,2.37-1.35q-4.55-.8-4.54-4.38a7,7,0,0,1,1.31-3.89A21.21,21.21,0,0,1,432,64.22l2.81-2q-7.12-2.58-7.13-9.53a10.59,10.59,0,0,1,4-8.65q4-3.28,10.71-3.28,6.46,0,10.12,2.87,2.08.09,2.67.06c1.08,0,2.7-.1,4.88-.16l.4.36-.37,3.39-.36.33h-4.88a12.2,12.2,0,0,1,.43,3.23q0,7.85-7.61,10.72A19.11,19.11,0,0,1,441,62.83c-.75,0-1.72,0-2.9-.16A3.32,3.32,0,0,0,436,65.6c0,1.12.8,1.76,2.41,1.91.92.09,2.46.14,4.61.14.68,0,1.87,0,3.56-.1s2.94-.1,3.76-.1q7.46,0,9.26,3.3A9.41,9.41,0,0,1,460.58,75.36ZM453,79.12c0-2.4-.83-3.9-2.5-4.52a15.31,15.31,0,0,0-4.22-.43L440,74.11c-.7,0-1.67,0-2.9.06q-4.51,2.81-4.51,6.43a6.08,6.08,0,0,0,2.67,5.23,12.14,12.14,0,0,0,7.15,1.89,11.92,11.92,0,0,0,7.7-2.32A7.64,7.64,0,0,0,453,79.12Zm-6-26.8Q447,44,441.46,44T436,51.2q0,8.5,5.7,8.5Q447,59.7,447,52.32Z"/><path class="cls-1" d="M465.87,35.75a1.83,1.83,0,0,1,1.35.64,2,2,0,0,1,.6,1.39,5.5,5.5,0,0,1-.37,1.48c-.25.72-.46,1.28-.64,1.69a2.26,2.26,0,0,1-.51.71c-.24.25-.48.48-.71.71a1.36,1.36,0,0,1-.6.4c-.45.18-.77.16-.95-.06s-.16-.54.21-1c.17-.22.42-.57.74-1a3.14,3.14,0,0,0,.47-.84c0-.09-.23-.34-.68-.74a5.72,5.72,0,0,1-.57-.64,1.59,1.59,0,0,1-.1-.71,2.22,2.22,0,0,1,.47-1.49A1.63,1.63,0,0,1,465.87,35.75Zm.47,2.84a.3.3,0,0,0,.2-.07l-.13-.07A.19.19,0,0,0,466.34,38.59Z"/><path class="cls-1" d="M493.68,62.73a10.48,10.48,0,0,1-4,8.56q-4,3.24-10.46,3.25a27.82,27.82,0,0,1-9.82-2l-.37-.5c.2-2,.32-3.59.37-4.71l.16-4.15.33-.37h1.95l.39.37a35.13,35.13,0,0,0,.3,4.35,8.88,8.88,0,0,0,7.35,3.59,7.15,7.15,0,0,0,4.65-1.42,4.63,4.63,0,0,0,1.74-3.79,3.87,3.87,0,0,0-2.63-4,35.94,35.94,0,0,0-4.45-1.12q-5.44-1.16-7.29-2.63a8,8,0,0,1-2.8-6.63,9.5,9.5,0,0,1,3.46-7.68q3.63-3,9.82-3a19.18,19.18,0,0,1,8.77,1.78l.3.52a52.54,52.54,0,0,0-.56,7.62l-.36.33h-1.88l-.36-.33a24.89,24.89,0,0,0-.47-3.86,7.2,7.2,0,0,0-6-2.64,6.76,6.76,0,0,0-4.22,1.26,3.93,3.93,0,0,0-1.65,3.29,3.6,3.6,0,0,0,2.8,3.66c.84.27,2.47.64,4.88,1.12,3.7.73,6.13,1.56,7.32,2.51Q493.68,58.32,493.68,62.73Z"/><path class="cls-2" d="M120.64,52.45c0,.11-.1.11-.13.2,0,.3.09.77-.14.86,0,.17,0,.34,0,.5s-.12.2-.14.3.06.35,0,.41-.12,0-.14.1,0,.18,0,.25-.21.34-.13.56c-.24.07-.17.37-.23.55a1.57,1.57,0,0,1-.14.25c0,.06,0,.12,0,.15l-.1.11c0,.07,0,.18,0,.25s-.23.06-.13.3c-.18,0-.08.22-.28.15v.25c-.15,0-.05.21-.23.16a.49.49,0,0,1-.32.5c.08.38-.29.28-.22.66-.15.08-.2.25-.37.3,0,.3-.28.47-.46.71,0,0-.08,0-.09.05s0,.12,0,.15-.18,0-.18.1,0,.07,0,0a3.78,3.78,0,0,1-.59.7,1.51,1.51,0,0,1-.23.21c0,.21-.09.29-.23.45a.42.42,0,0,0,0,.1s-.08,0-.09,0,0,.09,0,.1-.08,0-.1,0-.05.11-.09.15-.17.11-.23.21,0,.11,0,.15-.13,0-.18.1-.06.11-.1.15a1.92,1.92,0,0,1-.14.15s-.09.06-.13.1,0,.15-.09.2-.07,0-.1,0-.24.2-.27.36c-.24-.06-.34.14-.46.3a2.4,2.4,0,0,1-.23.25c-.1.13-.19.16-.27.36-.07,0-.08,0-.14,0-.12.15-.3.24-.36.45-.27-.08-.32.2-.46.35s-.26.09-.23.25h-.18c-.06.12-.19.16-.23.31-.07,0-.13,0-.14,0s-.14.21-.23.3a.49.49,0,0,0-.41.3s-.13,0-.18,0-.05.13-.09.15-.11,0-.14,0-.17.24-.27.31-.1,0-.14,0a.61.61,0,0,0-.14.1s-.21.06-.23.1,0,0-.18.1a1.21,1.21,0,0,0-.14.1l-.13.05s-.06.13-.1.15-.06,0-.09,0-.14.2-.23.2,0-.07-.09,0,0,.13-.09.15-.23,0-.27,0,0,0-.19.11a.43.43,0,0,0-.09.15h-.32c0,.17-.09.07-.27.15s-.06.14-.09.15-.4-.09-.37.15c-.18,0-.36-.06-.41.15-.24,0-.35-.09-.41.15-.11,0-.17-.08-.32,0,0,.09-.09.2-.32.16l0,0h0c0-.2.34-.09.36-.3a.58.58,0,0,0,.32,0,.38.38,0,0,0,.09-.15s.1,0,.14,0,0-.09.05-.1.23,0,.27,0,0,0,.19-.1,0-.12.08-.15.14,0,.19,0,0-.13.09-.15.29.09.23-.16c.07,0,.16,0,.23,0s0-.11.09-.15.15,0,.18,0a.73.73,0,0,0,.09-.1s.14,0,.19,0,0-.13.09-.15.1,0,.13,0,.18-.24.28-.3.1,0,.14,0,0-.09,0-.1.17,0,.23-.06a.7.7,0,0,0,.18-.2c.05-.06.17-.08.14-.2.19,0,.2,0,.32-.15l.09,0s0-.1,0-.1.15,0,.19,0,.23-.42.5-.41c.11-.08.17-.24.27-.35s.12,0,.09-.1a.39.39,0,0,0,.32-.15c.14-.15.33-.33.46-.5a.28.28,0,0,0,0-.11c.12,0,.09.09.18,0a8.57,8.57,0,0,1,.64-.7,4.58,4.58,0,0,0,.55-.66.24.24,0,0,1,0-.1s.07,0,.09,0c.18-.19.38-.39.55-.6a2.12,2.12,0,0,1,.41-.46c0-.05,0-.15,0-.2s.12,0,.13,0,0-.13,0-.15.11,0,.14-.05.3-.45.51-.51c0,0,0-.19,0-.2s.08-.1.13-.15.23-.36.41-.4a.71.71,0,0,1,.42-.61v-.25c.13,0,.12-.2.27-.2v-.25c.21,0,.18-.28.37-.31,0-.15,0-.18,0-.3s.11-.15.23-.15v-.25c.16,0,.15-.17.27-.21-.07-.14.07-.19.09-.25s0-.3.19-.3c-.1-.2.1-.26.14-.36s0-.14,0-.2.08,0,.09,0,0-.22,0-.3.09,0,.09,0,0-.19,0-.25.19-.06.19-.15-.09-.11,0-.25.11-.39.27-.46v-.5h.14c0-.15,0-.34,0-.46a.4.4,0,0,1,.14-.2c0-.17.06-.47,0-.56,0-.09.17-.08.19-.2V49.32l-.14-.15c0-.34.06-.78-.14-.91v-.5c0-.16-.12-.14-.14-.26s0-.14,0-.35-.11-.11-.13-.2v-.46c0-.06-.08,0-.14-.05,0-.24,0-.5-.14-.55.07-.12,0-.22,0-.25s-.12-.1-.18-.16c.18-.34-.24-.36-.09-.7,0-.12-.14-.06-.14-.15s0-.27,0-.36l-.09-.05c0-.09,0-.36-.14-.3v-.35c-.16-.06-.11-.35-.27-.41a2.09,2.09,0,0,0,0-.25c0-.11-.06-.08-.09-.15s0-.27-.09-.3,0,0-.09-.21-.06,0-.1,0,.06-.34-.18-.36a.21.21,0,0,0,0-.25h-.09c0-.08,0-.15-.05-.2s-.08-.08-.09-.1,0-.15,0-.21-.12-.05-.13-.09,0-.15,0-.21-.12,0-.14-.1,0-.16,0-.2-.06-.16-.13-.3-.15-.14,0-.26a.58.58,0,0,1-.32-.45c0-.12-.18-.13-.23-.25s0-.22,0-.25-.08,0-.1,0,0-.12,0-.15-.08,0-.1,0,0-.2-.13-.16c0-.39-.31-.49-.5-.7a.35.35,0,0,0,0-.25c-.28-.25-.49-.57-.78-.81v-.2c-.12-.06-.16-.2-.27-.31s-.12,0-.14,0,0-.12,0-.15-.11,0-.14-.05,0-.06,0-.1l-.19-.15v-.2c-.17-.27-.51-.34-.54-.76-.15-.07-.09-.14-.19-.35,0,0-.08,0-.09-.05s0-.12,0-.16-.12-.1-.14-.15,0-.14,0-.2-.08,0-.09-.1,0-.22,0-.35a.23.23,0,0,0-.18-.2c.11-.23,0-.64,0-.81s-.12-.11-.14-.2c.08-.55-.11-1.33,0-1.82a.61.61,0,0,1,.14-.25V25.66c0-.17-.16-.07-.14-.2V24.4c0-.17-.12-.11-.14-.21,0-.32.08-.79-.14-.9,0-.27.07-.65-.13-.71,0-.28.07-.69-.14-.76v-.4c0-.14-.1-.1-.14-.15,0-.27.06-.31-.13-.46,0-.21,0-.42-.14-.45a.34.34,0,0,0-.14-.45c0-.09.06-.12.05-.21s-.09-.11-.14-.2,0-.08,0-.15-.12-.06-.14-.1,0-.15,0-.2-.11-.06-.13-.1.05-.37-.14-.31c0-.08,0-.17,0-.25s-.06-.09-.1-.15a1.77,1.77,0,0,0,0-.2c0-.05-.15-.14-.14-.2s.07,0,.05-.05-.33-.27-.32-.51a.45.45,0,0,0-.23-.2c.12-.23-.14-.27-.18-.35s.07-.11,0-.16-.4-.23-.41-.6c-.14-.15-.35-.32-.5-.51,0,0,0-.17-.09-.1a.17.17,0,0,1,0-.25c0-.14-.13,0-.18-.1s0-.19-.09-.25-.08,0-.09,0l0-.05s-.11,0-.14-.05,0-.12,0-.15-.23-.16-.28-.31H107c-.14-.32-.48-.41-.6-.75h-.22c0-.18-.19-.14-.19-.31h-.23c-.07-.14-.13-.29-.36-.25,0-.15-.18-.14-.18-.3-.13.12-.18-.11-.28-.15s-.17,0-.23,0,0-.14,0-.15-.15,0-.23-.06-.18-.13-.32-.2-.19-.06-.28-.2c-.31.11-.33-.18-.73-.1,0-.16-.07-.12-.09-.2-.17.09-.27,0-.41,0v-.15c-.26,0-.57,0-.64-.15h-.46c-.15,0-.06-.17-.18-.15-.29,0-.68.09-.78-.15-.41-.06-1,.12-1.23-.16H97.46c-.15,0-.1.13-.19.16h-.86c-.15,0-.1.12-.19.15h-.46c-.16.07-.26.21-.55.15-.14-.05-.09.13-.18.15s-.36,0-.41.15h-.27c-.06,0,0,.09,0,.15-.34-.07-.39.17-.73.1,0,.14-.14.11-.28.2s-.13.1-.22.15-.08,0-.09,0,0,.1,0,.11-.24-.05-.28,0,0,0-.18.1,0,.07,0,.15c-.3-.1-.25.19-.5.15-.07.11-.17.19-.23.3-.15-.08-.2,0-.28.15s-.09-.08-.18,0a1.7,1.7,0,0,0-.18.26c-.2-.08-.31.2-.41.3s-.11,0-.14,0a.9.9,0,0,0-.36.45c-.26-.09-.3.17-.42.31s-.07,0-.09,0-.15.07-.14.21h-.22l0-.05,0-.05c.08-.17.23-.26.36-.41s.19-.31.32-.4.11,0,.14,0a5.92,5.92,0,0,0,.41-.45s.09,0,.09,0,0-.09,0-.11.11,0,.14,0,.11-.28.37-.25c.06-.13.2-.17.22-.35a.74.74,0,0,0,.55-.41.17.17,0,0,0,.14,0s0-.06,0-.1a2.68,2.68,0,0,1,.18-.2s.11,0,.14,0,.17-.23.27-.3.13,0,.23-.05,0-.1,0-.1.1,0,.09.05.09-.11.13-.2c.11.16.19,0,.28-.1s.07,0,.13,0,.06-.07.1-.1S94,11,94,10.87a1.77,1.77,0,0,0,.23,0c.1,0,.08,0,.14-.1s.19,0,.27-.1a.34.34,0,0,1,.37-.1c.05,0,0-.09,0-.15s.2.06.32,0,.06-.14.1-.15.39.08.45-.15c.22,0,.46,0,.51-.15.18.06.61.11.63-.16.24.07.77.14.83-.15.83.19,1.74-.08,2.56.05.1,0,.08.12.18.15a2.62,2.62,0,0,0,1,0c.1,0,0,.15.13.16a7.63,7.63,0,0,0,.83,0s0,.13.09.15h.5c.13,0,.13.16.23.2s.2-.05.32-.05.09.1.14.15.29-.05.37.05.13,0,.36.1c0,0,0,.1,0,.15H105s0,.13,0,.15.17,0,.23,0,0,.14,0,.15.17,0,.23,0,0,.25.23.16c0,.11.16.09.14.25.17,0,.13.05.27,0,0,.23.33.07.32.3h.23c0,.37.52.24.55.61h.23c.15.15.19.42.5.4.08.21.28.31.41.45s0,.11.09.16a1.31,1.31,0,0,1,.23.2s0,.08,0,.1.08,0,.09,0c.21.22.37.47.6.7l.09.11s.11,0,.14,0,0,.13,0,.16.18.07.22.15c0,.32.22.43.42.55a.48.48,0,0,0,0,.31c.11.15.43.27.32.5a.69.69,0,0,1,.28.25c0,.09,0,.08,0,.15s.14.11.18.21,0,.11,0,.15.07,0,.09.05,0,.18.14.15a.42.42,0,0,0,.09.35,1,1,0,0,0,.09.26c.15.07,0,0,.09.2s.12,0,.14.1,0,.15,0,.2.12.06.14.1-.08.32.14.25V19c.13.05.06.33.22.35v.3c0,.12.14.06.14.15s0,.4.14.46c0,.23,0,.4.14.45,0,.23,0,.4.13.46,0,.24,0,.5.14.55,0,.27,0,.53.14.61,0,.27-.07.64.13.7,0,.16.06.44,0,.51s.13.19.18.3v.81c0,.13.1.1.14.15a4.16,4.16,0,0,0-.05,1c0,.16.15.07.14.2,0,1.48-.06,3.09.05,4.49-.07.05-.17.05-.19.15v1.57c0,.1.1.13.14.2v.75c.12.06.1.15.18.31a3.09,3.09,0,0,1,.14.35s.08,0,.09,0,0,.12,0,.15a3.73,3.73,0,0,0,.28.31,1.88,1.88,0,0,1,.27.3s0,.12,0,.15a1.53,1.53,0,0,0,.27.3,3.09,3.09,0,0,1,.23.25,1,1,0,0,0,.28.26.38.38,0,0,0,.09.35,1.8,1.8,0,0,1,.23.2,2.67,2.67,0,0,0,.5.51c0,.08,0,.08,0,.15s.25.22.36.35,0,.24.18.2v.2c.06.1.16.09.23.21s0,.21.1.3.28.14.18.35.08.12.18.1c-.1.24.14.31.23.46s0,.15,0,.2.12,0,.14,0,0,.25,0,.3.09,0,.09,0-.06.34.14.3c0,.08,0,.19,0,.2s.08.12.18.1,0,.15,0,.21.12.05.14.1,0,.14,0,.2.16.1.13.2-.06,0,0,.06.1,0,.13.09a1,1,0,0,1,.05.2c0,.07.07.09.09.16s0,.31.05.4.11,0,.13,0,0,.15,0,.2.09,0,.1,0,0,.26,0,.36l.09,0c.06.13,0,.31.14.35,0,.11,0,.2,0,.3s.12.06.14.1,0,.16,0,.21.12.06.13.1-.08.41.14.45c-.09.25,0,.35.14.51a.9.9,0,0,0,.23.8v.51c0,.14.1.11.13.25s0,.24,0,.35a.45.45,0,0,0,.14.2c0,.26,0,.53.14.61v.71c0,.16.15.06.14.2,0,.31-.08.75.13.86v2.67A4.09,4.09,0,0,1,120.64,52.45Z"/><path class="cls-2" d="M105.1,69c.23-.17.57-.06.78-.26"/><path class="cls-2" d="M98,43.21l0,0,0,0c-.18,0-.17-.28-.36-.3,0-.26-.22-.44-.37-.6a1.25,1.25,0,0,1-.32-.41c-.07,0-.16,0-.23,0s0-.14,0-.15-.18,0-.23,0,0-.13-.09-.15a5.72,5.72,0,0,0-1.1,0h-1a15.37,15.37,0,0,1-2.15,0c-.09,0-.15-.13-.23-.15s-.43.1-.51-.15c-.1,0-.21,0-.31,0s-.06-.11,0-.1-.14,0-.23-.06l0-.09c-.07-.09-.22-.24-.32-.36s0-.09,0-.1-.08,0-.09,0,0-.11,0-.15-.07,0-.09,0,0-.09,0-.1a.78.78,0,0,0-.14-.05c-.07-.12,0-.35-.13-.36s0-.22,0-.35-.11-.14-.14-.25,0-.08,0-.1,0,0,0,0a11,11,0,0,0,0-1.16,1.3,1.3,0,0,0-.23-.26,2.85,2.85,0,0,0-.32.06h-.36c0-.11,0-.17-.14-.16v-.8c-.05-.17-.14,0-.28-.1,0-.09,0-.1-.09-.1s.07-.29-.14-.31c0-.13.1-.09.14-.15S88,36.09,88,36c.09-.5-.19-.6-.37-.81-.14,0-.13.09-.27,0s-.13-.15-.23-.2c-.32.2-.46-.19-.82-.1-.16-.35-.53-.46-.6-.91-.09,0-.1.07-.13.1s-.18.13-.19.21.06.06.05.09-.22.11-.14.36c-.11-.1-.08.11-.14.15s-.13,0-.18,0,0,.13-.09.15-.09-.06-.14,0a.52.52,0,0,0-.23.2c-.1,0-.12,0-.18,0s-.08.08-.14,0,0-.23-.18-.2c.06-.27.29-.35.46-.55,0,0,0-.15.09-.21s.11,0,.14,0,0-.06,0-.1.06,0,.09-.1a1.69,1.69,0,0,1,.23-.25c.06,0,.1-.15.18-.1,0-.26.23-.36.42-.45-.1-.17,0-.52,0-.76s.07-.1.14-.1c0-.29,0-.55.14-.66,0-.26,0-.47.13-.56v-.55c0-.16.12-.1.14-.2v-.51c0-.15.12-.13.14-.25V27.93c0-.08-.14,0-.14-.1s.06-.44,0-.56-.07,0-.09-.05,0-.23,0-.3-.11-.05-.13-.1,0-.32-.14-.31c0-.2.06-.19,0-.35s-.09-.33-.28-.35c0-.25.11-.4-.09-.46,0-.22,0-.4-.14-.45,0-.23,0-.4-.13-.45,0-.31.09-.78-.14-.86,0-.26-.06-.49,0-.76,0-.08.12-.16.14-.25s0-.46,0-.66.07,0,.13-.15,0-.32.14-.3c0-.19,0-.46.14-.46h.09s0,0,0,.06a.7.7,0,0,1-.14.6c.09.61-.12,1.54,0,2.07,0,.08,0,.13.14.15-.07.28,0,.34.13.51-.13.19.16.35.14.45s0,.09.09.25,0,.11,0,.15a.8.8,0,0,1,.13.25,1.41,1.41,0,0,0,.14.31l.09.1c0,.05,0,.15,0,.2s.12.06.14.1,0,.15,0,.2.11.05.14.1,0,.17,0,.2a.49.49,0,0,1,.09.41c0,.12.14.06.14.15a.5.5,0,0,0,.14.51c0,.2,0,.48,0,.6s.12.14.19.2a2.61,2.61,0,0,0,0,.81c0,.2.08.35-.09.45v.76l-.14.15v.51c0,.16-.15.07-.14.2a2,2,0,0,1,0,.35c0,.13-.12.16-.13.25,0,.25,0,.47,0,.81,0,.14-.13.13-.19.2s0,.45.19.46c-.08.27.13.22.13.4.23,0,.39,0,.46.15h.46c.15,0,.09.13.18.15s.22,0,.32,0,0,.1,0,.11.15,0,.23,0,.22.31.32.56c0,.06.06,0,.09.05s-.09.33.13.25a.65.65,0,0,0,.19.61,1,1,0,0,1,.87.3v.35c-.24-.1-.29.11-.41.26s.15.1.27.1.23.18.28.3,0,.09,0,.1.18,0,.13.25c0,.06.08,0,.14.05V38c0,.14.11.15.14.3s0,.42,0,.61a3.52,3.52,0,0,0,0,.65c0,.22.21.28.32.4s0,.09,0,.1.07,0,.09,0a.87.87,0,0,1,.19.31c.27-.08.25.24.45.1,0,0,0,.14.09.15h.51c.14,0,.06.17.18.15.54.11,1.36-.14,1.83,0,.09,0,.11.12.18.15.4.08,1-.09,1.37,0,.11,0,.13.08.19.15s.27,0,.36,0a.57.57,0,0,1,.23.16s.1,0,.14,0a.22.22,0,0,0,.27.1c.1.32.42.36.51.75,0,.1.11.06.13.1s0,.18,0,.26.07,0,.09.05,0,.18.14.15C97.78,43,98.06,42.94,98,43.21Z"/><line class="cls-1" x1="98" y1="43.27" x2="98" y2="43.21"/><path class="cls-2" d="M98,43.21c.13,0,.13.24.28.26a.3.3,0,0,0,0,.15"/><line class="cls-1" x1="98.23" y1="43.62" x2="98.2" y2="43.66"/><path class="cls-2" d="M98.2,43.66c0,.08.13.13.19.21"/><line class="cls-1" x1="98.2" y1="43.66" x2="98.19" y2="43.72"/><path class="cls-2" d="M98.19,43.72c-.13,0-.08-.22-.23-.2v-.2"/><line class="cls-1" x1="97.96" y1="43.32" x2="98" y2="43.27"/><path class="cls-2" d="M98,43.27s0-.05,0-.08"/><path class="cls-2" d="M85.75,20.66c-.11.06-.08.19-.1.29l-.08.06"/><path class="cls-2" d="M83.3,29.72l0,0c-.14,0-.13.09-.27.05-.15-.26-.4-.19-.69-.15,0,0,0-.14-.09-.15H79.85c-.15,0-.1.13-.18.15s-.5-.08-.51.15a.26.26,0,0,0-.41.16c-.08,0-.1-.07-.18-.05s-.12.11-.23.15-.24,0-.32.05,0,.09,0,.1-.13,0-.18,0-.09.11-.06.1-.11,0-.17.05-.06.14-.09.15-.13,0-.18,0-.12.17-.19.15,0-.08,0,0a1,1,0,0,0-.27.35.14.14,0,0,0-.19,0c-.12.12-.2.3-.32.41s-.1,0-.14,0a1.81,1.81,0,0,0-.41.45s-.08,0-.09.05,0,.07-.14.15-.23.37-.41.41v.3c-.14,0-.15.13-.27.15s0,.18,0,.25-.13,0-.14.06,0,.19,0,.25-.13,0-.14,0,.08.12,0,.2c-.21,0-.07.36-.28.35,0,.13,0,.18,0,.31s-.11.09-.13.2.08.49-.14.55V37c0,.16.12.1.14.2v.4c0,.14.09.1.13.15s-.08.29,0,.41l.09,0c0,.14-.12.14,0,.25s0,.08,0,.15.21.19.28.31-.06.3.13.25c-.06.27.15.36.28.5s.14.27.27.25c0,.23.07.28.19.41l.36.4c.1.11.12.21.23.31s.1,0,.14,0,0,.09,0,.11.07,0,.09,0,0,.07,0,.1a1.05,1.05,0,0,1,.32.4h.23c0,.16.08.09.14.15s0,.08,0,.1a1.9,1.9,0,0,0,.18.2s.13-.07.19,0,0,.15,0,.15.14,0,.18,0,.23.34.37.46.14,0,.18,0,0,.09.05.1.34.31.37.35,0,.12,0,.16.12.06.13.1-.07.35.14.35c0,.26,0,.33.14.45,0,.26,0,.34.13.46-.09.61.13,1.54,0,2.07a.15.15,0,0,1-.13.15v0h0c0-.08,0-.32-.18-.36.09-.13,0-.44,0-.65s-.11-.11-.13-.2v-.41c0-.16-.12-.1-.14-.2s0-.14,0-.2-.06-.09-.09-.15,0-.3-.18-.3c.07-.34-.19-.35-.37-.56,0,0-.06-.16-.09-.2s-.08,0-.09,0,0-.09,0-.1-.07,0-.19,0-.09-.19-.13-.2-.12.08-.19,0,0-.14,0-.16-.15,0-.18-.05-.09-.09-.1-.1-.16,0-.23,0,0-.13,0-.15-.14,0-.18,0a.93.93,0,0,1-.23-.3c-.16,0-.21-.06-.28-.15a.75.75,0,0,1-.09-.15h-.23c-.1-.23-.33-.31-.41-.56h-.23c-.06-.19-.24-.27-.36-.4s-.12-.18-.19-.26-.19-.15-.27-.24,0-.22-.14-.16,0-.09,0-.15a7.27,7.27,0,0,0-.55-.56c0-.06,0-.14,0-.2s-.11-.05-.14-.1,0-.12,0-.15a.88.88,0,0,0-.27-.3c0-.06,0-.15,0-.2s-.12-.06-.14-.1,0-.16,0-.21-.13,0-.14,0,0-.33-.13-.35c.06-.34-.16-.37-.1-.71-.3-.12,0-.93-.27-1,0-.41-.13-1.11.14-1.27,0-.17,0-.33,0-.5s.12-.17.13-.25,0-.26,0-.36a.56.56,0,0,1,.14-.2c0-.15-.08-.15,0-.3.14,0,.12-.12.18-.25a.62.62,0,0,0,.09-.46c.14,0,.13-.34.28-.2-.08-.31.18-.27.13-.55.11,0,.12-.17.23-.21a.36.36,0,0,0,0-.25c.23-.07.33-.3.5-.5s.38-.42.6-.66.22-.28.41-.3.16-.23.28-.31.1,0,.13,0,.18-.23.28-.3.28.07.22-.15c.13.08.16,0,.28-.05s.24,0,.23-.2h.32a1.43,1.43,0,0,0,.14-.2c.11,0,.21.1.32,0a.69.69,0,0,0,0-.1c.07,0,.16,0,.23,0s.21-.24.55-.16c.14.05.09-.12.18-.15h.87c0-.08,0-.08,0-.15.41.07,1.11-.16,1.29.15.29,0,.72-.09.82.15.11,0,.2,0,.32,0s.12.11.23.16.19,0,.27,0,0,.09,0,.1.38-.15.28.15c.17,0,.31,0,.32.2a.31.31,0,0,1,.36.25Z"/><path class="cls-2" d="M83.3,29.72a.2.2,0,0,1,.12.1"/><line class="cls-1" x1="83.42" y1="29.82" x2="83.46" y2="29.79"/><path class="cls-2" d="M83.46,29.79a.14.14,0,0,1,.09.16c-.12,0-.2,0-.18-.16"/><line class="cls-1" x1="83.37" y1="29.79" x2="83.42" y2="29.82"/><path class="cls-2" d="M77.73,30.3h0"/><path class="cls-2" d="M79.16,47s0-.11,0-.15"/><path class="cls-2" d="M90.55,29.24c0,.15,0,.18,0,.3s0,.08,0,.1-.09,0-.09,0,0,.25-.09.35-.11,0-.14.06-.12.23-.18.3-.1,0-.14,0,0,.08,0,.1-.08,0-.09,0-.09.23-.18.3-.14,0-.19,0-.06.14-.09.15-.22,0-.32,0,0,.1-.05.15c-.18-.05-.32,0-.59,0,.08-.18-.13-.14-.14-.15s-.27-.19-.41-.25c0-.12.16-.09.14-.25s.13,0,.18,0,0-.13.09-.15.13,0,.19,0,0-.21.27-.15c0-.14.23-.12.23-.31h.18c.06-.11.19-.15.23-.3.24,0,.33-.15.41-.3s.09.08.19,0,.12-.07.27-.15,0-.1,0-.1.14,0,.18,0,.05-.21.23-.16S90.76,29.18,90.55,29.24Z"/><path class="cls-2" d="M82,37.76c-.14,0-.08.14-.14.21s-.11,0-.14.05a.89.89,0,0,0-.23.35c-.18-.12-.29.12-.36.15s-.35-.05-.41.15h-.78c0-.37.32-.39.41-.65h.18c.07-.12.2-.16.23-.3.13.13.17-.09.28-.16s.13,0,.18,0,0-.07,0-.1.1,0,.13,0,.1-.13.14-.15.3,0,.32-.2a.22.22,0,0,0,.14,0A4,4,0,0,0,82,37.76Z"/><path class="cls-2" d="M85.93,39.63s0,.16,0,.2-.13.1-.18.15a.45.45,0,0,1-.09.1.17.17,0,0,0-.09.21c-.18-.11-.24.11-.33.15s-.1,0-.13,0-.12.14-.18.15-.07-.05-.1-.05-.19.12-.27,0c0-.34.33-.34.41-.61.27.08.36-.24.5-.4s.19-.07.19-.2c.08.09.11,0,.23,0v-.15h.18c0,.14,0,.29,0,.4S85.94,39.61,85.93,39.63Z"/><path class="cls-2" d="M96.31,45c-.06.22-.12-.08-.32,0,0-.14-.19-.13-.18-.3H94.62c0,.2-.36.07-.36.3-.18-.06-.19,0-.33.05s-.27,0-.27.2c-.12,0-.17,0-.27.1s-.17,0-.14.21c-.18-.11-.22.1-.32.15s-.11,0-.14,0-.14.19-.23.25-.07,0-.13,0-.1.16-.19.2-.1,0-.13,0a.67.67,0,0,0-.14.15s-.11.05-.09.15-.1-.08-.19,0a2.4,2.4,0,0,0-.18.26c-.05,0-.13,0-.18,0s0,.13-.1.15-.13,0-.18,0S91,47,91,47s-.13,0-.18,0,0,.12-.09.15a.9.9,0,0,1-.19.05.37.37,0,0,1-.36.1c-.11,0,0,.15-.14.15-.26-.07-.78.13-.91-.05,0,0,0-.1,0-.1s-.3.08-.27-.15h-.23c0-.18-.18-.14-.19-.3s-.13,0-.18,0,0-.09,0-.1-.14,0-.18,0,0-.09,0-.11-.09-.15-.18-.25-.24-.16-.32-.25,0-.14-.09-.2-.17-.14-.18-.3-.08-.22-.23-.21,0-.14,0-.2-.12-.06-.14-.1,0-.14,0-.2-.08,0-.09-.05,0-.31-.14-.35c0-.28,0-.51-.14-.61s0-.52,0-.66-.12.06-.18.11-.26,0-.28.2c-.07,0-.24.06-.23-.05-.13.05-.26.28-.41.15s-.12.1-.18.15-.18,0-.32,0-.15.14-.23.15c-.32.06-.69,0-1.1,0-.1,0-.15,0-.14.15s-.06-.17-.18-.15c-.35-.05-.91.13-1-.15-.1,0-.3-.06-.32,0-.18-.23-.39-.11-.5-.4.2.07.32,0,.59,0v.15h1.69c.11,0,0-.15.14-.15h.69c.05,0,0-.09,0-.15s.33-.07.37,0,.13-.13.23-.16.13,0,.18,0,.15-.12.23-.15.12,0,.18,0,.14-.12.23-.15.19,0,.27,0a.31.31,0,0,0,0-.1c.09,0,.31.07.27-.15h.19c.1-.07.14-.21.23-.31.31,0,.39-.24.5-.45h.23a.57.57,0,0,0,.18-.4c.15-.16.31-.23.41-.4s0,0,0-.06.09-.12.1-.15,0-.29.18-.3a.71.71,0,0,1,.14-.56c.09.3.11.63-.09.76,0,.12.08.11,0,.25s-.07.18-.14.31-.21.1-.13.35a.56.56,0,0,0-.28.2c0,.05,0,.16,0,.2s-.34.25-.41.46c-.28-.07-.34.31-.55.45,0,0-.1,0-.13,0s-.14.15-.23.2c0,.24-.1.64.13.66,0,.13,0,.36,0,.4s0,0,.09.21a.62.62,0,0,0,.23.2.44.44,0,0,0,.27.45c0,.21.25.28.37.45a2.44,2.44,0,0,0,.32.36.92.92,0,0,1,.27.35c.07,0,.17,0,.23,0s0,.14,0,.15.3-.09.23.15c.15,0,.32,0,.32.16.26,0,.66.09.73-.16h.32c.07,0,0-.12,0-.15s.14,0,.18,0,.05-.13.09-.15.26.1.28-.15c.06,0,.12,0,.13.05.07-.11.17-.19.23-.3s.13,0,.18,0,0-.13.09-.15.14,0,.19,0,0-.12.09-.16.15,0,.18,0a.73.73,0,0,0,.09-.1c.09,0,.29.09.23-.15.18.06.24,0,.32-.15s.09,0,.09-.05,0-.09,0-.1.28,0,.33-.15c.06,0,.23-.06.22.05s.09-.14.14-.2c.15.18.18-.07.27-.1s.16,0,.28,0,0-.1,0-.16h.42c.14,0,.12-.13.23-.15.27,0,.44,0,.63,0s.25.24.55.15C95.88,44.61,96.14,44.75,96.31,45Z"/><path class="cls-2" d="M112.59,47.76c-.4.24,0,1.4-.32,1.71V50c0,.12-.25.25-.09.41a.26.26,0,0,1-.18.2c0,.11.11.25,0,.35s0,.08-.09.31-.11.11-.14.2.08.32-.14.25v.4c0,.06-.11,0-.13.06s0,.19,0,.25-.13,0-.14.05,0,.18,0,.25-.15.17-.28.2a.3.3,0,0,1,0,.2.22.22,0,0,0-.14.06c0,.06,0,.19,0,.25s-.25,0-.13.3c-.15-.06-.12.08-.19.15l-.09,0c0,.06,0,.15,0,.2s-.12,0-.13,0,0,.18,0,.26-.24.16-.14.3c-.17,0-.07.25-.28.2.08.32-.18.26-.14.56-.1,0-.08.17-.22.15s0,.18,0,.25-.13,0-.14,0,0,.19,0,.25-.12,0-.14,0,0,.19,0,.26-.12,0-.13,0,0,.15,0,.21-.21.1-.14.35c-.18-.05-.08.22-.28.15.08.32-.18.26-.13.56-.11,0-.09.17-.23.15-.1.15.08.29-.14.3.06.29-.22.51-.41.6v.26c-.22.1-.26.38-.5.45-.06.1,0,.22-.05.3s-.08,0-.09,0,0,.09,0,.11-.13,0-.14.05,0,.12,0,.15-.18,0-.14.1c-.25-.09-.29.17-.41.3s-.1.06-.13.1a1.78,1.78,0,0,0-.28.35H106c-.11.08-.15.21-.23.31-.27-.15-.15.17-.41.15,0-.28.19-.39.32-.56l.09-.15s.08,0,.09,0,0-.15.14-.15v-.25a.35.35,0,0,0,.27-.4.9.9,0,0,0,.23-.2c0-.05,0-.13,0-.26s.22-.06.13-.3c.16,0,.06-.21.23-.15,0-.16,0-.1,0-.26.21.05.1-.21.14-.3s.13,0,.14,0,0-.18,0-.25.11,0,.13-.05,0-.19,0-.25.13,0,.14,0-.06-.32.14-.31c0-.12,0-.31,0-.4l.09,0c0-.06,0-.15,0-.2h.09a.46.46,0,0,0,0-.26c.06,0,.16-.09.18-.14s0-.27,0-.36.13,0,.14-.05,0-.17,0-.15c.08-.15.12-.09.19-.15s0-.19,0-.3c.19,0,.09-.25.14-.36s.12,0,.13,0,0-.15,0-.2.13-.07.14-.1,0-.19,0-.25.13,0,.14-.05-.06-.29.14-.26c-.07-.3.19-.25.13-.55.16,0,.06-.21.23-.15,0-.19,0-.35.18-.35-.15-.27.24-.26.1-.51.12,0,.17-.14.27-.2s0-.18,0-.25.13,0,.14-.05,0-.19,0-.26.12,0,.14,0,0-.15,0-.2.12-.07.13-.1-.08-.32.14-.25c-.1-.27.22-.33.09-.46s.12-.1.18-.15-.08-.15,0-.3.11-.42.32-.46c-.1-.13,0-.2,0-.35a.13.13,0,0,0,.14-.1c0-.12,0-.25,0-.35s.11-.15.14-.25-.11-.49.13-.51v-.7h.14v-.61c0-.13.1-.1.14-.15,0-.39-.09-.95.14-1.11,0-.31.06-.74,0-1,.26-.07.21-.74.14-1,0-.1.12-.1.18-.15a2.22,2.22,0,0,1,0-1h.18a1.07,1.07,0,0,0,0,.45c.33.16-.08,1.13.32,1.22a6.87,6.87,0,0,0,0,1.31.22.22,0,0,0,.18.1A9.27,9.27,0,0,0,112.59,47.76Z"/><path class="cls-2" d="M74.18,43.57c.16,0,.13.15.13.3-.13,0-.28-.17-.18-.3"/><line class="cls-1" x1="74.13" y1="43.57" x2="74.15" y2="43.59"/><line class="cls-1" x1="74.15" y1="43.59" x2="74.18" y2="43.57"/><path class="cls-2" d="M98.28,68.24c-.13.23-.43.27-.41.65-.13,0-.2.17-.28.26s-.13.22-.27.25v.25c-.25.1-.3.41-.55.51.09.18-.22.43-.36.6s-.23.32-.37.36c-.06.57-.65.56-.69,1.16-.23,0-.17.31-.41.3a.55.55,0,0,1-.23.35l-.09,0s0,.11,0,.15-.12,0-.14.05l-.28.31s0,.08,0,.1-.26.08-.23.25c-.29,0-.4.32-.59.45s-.11,0-.14,0a.65.65,0,0,0-.13.16s-.1,0-.09.15c-.29-.1-.21.21-.46.15-.06.11-.2.15-.23.3-.16-.07-.25.12-.32.15s-.23,0-.23.15a.24.24,0,0,1-.23,0c-.07,0-.18,0-.14.2s-.2,0-.32,0,0,.09-.09.11c-.25,0-.51-.07-.59.2a5,5,0,0,0-1.19,0c-.29,0-.5.11-.6-.15-.12.11-.23-.08-.32,0s-.12-.1-.18-.16h-.36c0-.22-.08-.08-.23-.2s-.06-.13-.1-.15-.08.07-.13,0-.06-.14-.09-.15-.14,0-.19,0-.12-.25-.27-.15c0-.11-.15-.17-.19-.3-.27.05-.33-.14-.41-.31-.35.09-.25-.32-.59-.25-.09-.15-.14-.35-.41-.3,0-.24-.27-.24-.32-.46-.33,0-.4-.27-.55-.45-.08,0-.1.06-.18,0-.19-.37-.53-.57-.74-.91H83.1a1.08,1.08,0,0,0-.28-.4s-.12,0-.14,0,.07-.08,0-.1a.61.61,0,0,0-.14-.1s-.11,0-.13,0,0-.12,0-.15-.08,0-.09,0,0-.09,0-.1-.1,0-.14-.06a2.16,2.16,0,0,1-.09-.2,4.76,4.76,0,0,1-.82-1c-.13,0-.18-.15-.28-.21a.31.31,0,0,0-.14-.3s0-.09,0-.1-.08,0-.09,0,0-.09,0-.1-.08,0-.09,0-.09-.14-.14-.21a1.74,1.74,0,0,0-.14-.14s0-.12,0-.16A1.61,1.61,0,0,0,79.8,68c0-.3-.14-.35-.27-.46,0-.19-.07-.29-.19-.4s-.14-.2-.22-.15c.17-.34-.29-.28-.23-.66-.11-.07-.14-.21-.28-.25a.59.59,0,0,0-.41-.55c.12-.28-.23-.4-.27-.51s.1-.14,0-.2l-.23-.2c.07-.23-.18-.33-.28-.46s0-.12,0-.15-.14-.24-.27-.25,0-.31-.14-.3.08-.1,0-.2a.49.49,0,0,0-.27-.26.33.33,0,0,0-.28-.4c.15-.22-.11-.36-.23-.45a.46.46,0,0,0-.27-.46v-.2c-.11-.13-.28-.19-.27-.45s-.34-.2-.23-.41c-.12,0-.14-.18-.28-.2s0-.13,0-.25-.17-.14-.23-.25,0-.12,0-.15-.12-.11-.14-.16,0-.11,0-.15-.14-.24-.27-.25,0-.14,0-.2-.12-.06-.14-.1,0-.15,0-.2-.14-.1-.14-.16.09-.18-.09-.25v-.3c0-.14-.13-.07-.18-.15s.06-.29-.14-.31a.89.89,0,0,0,0-.35c0-.1-.09-.13-.14-.2v-.51c0-.13-.1-.11-.14-.25s0-.55,0-.8-.12-.11-.13-.21V54c0-.16-.12-.1-.14-.2V52.4a7.43,7.43,0,0,1,0-1.42c0-.1.1-.12.14-.2,0-.34-.11-.89.13-1,0-.17,0-.33,0-.5s.12-.17.14-.25,0-.26,0-.36a.39.39,0,0,1,.14-.2,1.84,1.84,0,0,0,0-.6c.23,0,.14-.33.18-.51a.45.45,0,0,1,.14-.2c.05-.28-.12-.81.14-.86,0-.3,0-.76,0-1.21s0-.87,0-1.16c.16,0,.26.35.13.51s.16.16.19.3a16.47,16.47,0,0,0,0,2.72c-.28.35-.07.87-.14,1.31,0,.11-.1.09-.14.21-.11.32.06.77,0,1s-.1.13-.13.21v1.76c0,.16.15.07.13.21a5.92,5.92,0,0,1,0,1.21c0,.14.15.13.18.25,0,.28.06.7,0,.91a.79.79,0,0,0,.19.25c-.08.1,0,.33,0,.5s.12.11.14.21c0,.27-.07.64.14.7v.4c0,.17.12.11.13.21s0,.22,0,.3.12.06.14.1,0,.23,0,.3.14.1.14.21-.08,0,0,.15,0,.07.1.25.17.1.13.3a.68.68,0,0,0,.28.25c0,.07,0,.12,0,.2s.07,0,.09.06,0,.08,0,.1l.14.05s0,.15,0,.2.15.12.22.2.08.22.19.2v.2c.17.21.42.34.41.61.11,0,.09.23.27.2-.14.35.28.27.23.66.19.07.2.32.41.35v.2c.08.17.28.2.28.46.13,0,.11.25.27.25a.22.22,0,0,0,0,.15,1,1,0,0,1,.32.51,2.36,2.36,0,0,0,.23.2v.2a.72.72,0,0,0,.27.25.44.44,0,0,0,.18.4s.13.07.09.26c.25.13.27.52.51.65a.32.32,0,0,0,.09.3s.08,0,.09,0,.08.32.23.31V66c.18.07.22.3.41.35a.57.57,0,0,0,.37.56.32.32,0,0,0,0,.25c.18.16.27.41.51.51v.2a3.52,3.52,0,0,1,.31.35,1.34,1.34,0,0,0,.33.3c0,.2,0,.2.13.35a3.92,3.92,0,0,0,.28.31,1.78,1.78,0,0,1,.36.4,1.16,1.16,0,0,0,.19.21s.11,0,.13,0,0,.13,0,.16a.93.93,0,0,1,.1,0c0,.07.06,0,.13.1s0,.09,0,.1.13.12.23.25l.09.1a1,1,0,0,0,0,.1c.08.09.2.12.28.21a1.34,1.34,0,0,1,.27.4.52.52,0,0,1,.28.05s0,.09,0,.1.08,0,.09,0,0,.11.05.15.1,0,.13,0,0,.09,0,.1.08,0,.09,0,0,.09,0,.1.08,0,.09,0,.15.24.23.35h.23a.7.7,0,0,0,.55.46c0,.18.2.25.27.4a.41.41,0,0,1,.42.31c.31,0,.37.28.55.45.13-.09.09,0,.18,0s.28,0,.27.2c.07,0,.17,0,.23,0s0,.14,0,.15.29-.06.27.16a1.76,1.76,0,0,1,.23,0c.12,0,.14.13.23.15.46.09,1-.07,1.55,0,.15,0,.1-.13.19-.15h.36c.15,0,.1-.13.18-.16s.33.06.37,0,0,0,.19-.11c0,0,0-.13.09-.15s.28.09.23-.15c.09,0,.12,0,.18,0,.1-.17.16-.17.32-.2.11-.28.49-.26.59-.56h.19c.06-.2.28-.22.32-.45a.23.23,0,0,0,.27-.1c.25-.28.79-.9,1-1.06s.15.08.09-.15c0,0,.14,0,.18,0a1.68,1.68,0,0,0,.28-.3l.14-.16s.05-.11.09-.15.15-.06.18-.1.17-.24.27-.35c.28-.31.62-.67.92-1,0,0,0-.08,0-.1s.13-.06.18-.1l.27-.3s0-.16.1-.21.13,0,.18-.1.13-.28.27-.3l0,0,0,0C98.22,68.2,98.24,68.23,98.28,68.24Z"/><path class="cls-2" d="M98.51,67.76c-.09.16-.27.22-.32.4"/><line class="cls-1" x1="86.85" y1="58.17" x2="86.89" y2="58.15"/><path class="cls-2" d="M86.89,58.15H87v.4a.39.39,0,0,1-.23-.4"/><line class="cls-1" x1="86.8" y1="58.15" x2="86.85" y2="58.17"/><path class="cls-2" d="M86.85,58.17s0-.05,0-.08"/><path class="cls-2" d="M95,47.05v.1c0,.22-.28.24-.32.45a.12.12,0,0,0-.19,0,2.75,2.75,0,0,1-.22.26l-.42.45-.09,0s0,.09,0,.1-.08,0-.09,0,0,.09,0,.1-.09,0-.14,0-.11.22-.18.31-.24.14-.27.3c-.13,0-.1-.09-.19,0s-.19.09-.18.25h-.18a1.14,1.14,0,0,0-.23.3c-.06,0-.13,0-.18,0s0,.12-.1.15-.1,0-.13,0a.73.73,0,0,0-.14.16s-.11.05-.09.15-.13,0-.19,0,0,.13-.09.15-.13,0-.18,0-.06.11-.14.15-.22,0-.22.15c-.12-.18-.19.06-.28.1s-.19,0-.23,0,0,.07-.13.1-.17.15-.19.15-.13,0-.18,0-.15.13-.23.16-.32,0-.41.15h-.41c-.06,0,0,.09,0,.15h-.6c-.05,0,0,.09,0,.15h-.59a.14.14,0,0,0-.1.15c-.07-.09-.17.07-.27-.05s0,.17-.14.2-.26-.12-.27.16c-.07,0-.09-.07-.14-.06s0,.1-.09.16-.13,0-.14,0,0,.19,0,.26-.12,0-.13.05,0,.11,0,.1-.09.21-.18.2c0,.32.05.69-.14.81,0,.3,0,.58,0,.91,0,0,.07,0,0,.05s0,.23.09.35v.56c0,.1.09.13.14.2s.05.33,0,.35.14.12.18.2v.3c.12.06.11.15.18.31s0,.08,0,.1h.1c0,.07,0,.18,0,.25s.22.32.13.51.23.11.1.25l0,0v.06c-.11-.1-.26-.15-.23-.4,0-.08-.14-.08-.18-.16s0-.06,0-.1-.09,0-.13-.15,0-.11,0-.15-.1-.09-.14-.3-.11-.09-.14-.15,0-.11,0-.16-.11-.08-.13-.15,0-.11,0-.15-.12-.06-.14-.1,0-.32-.14-.35c.07-.15,0-.17,0-.31s-.14-.15-.19-.25,0-.21,0-.4-.13-.16-.13-.2,0-.24,0-.36a5.11,5.11,0,0,0,0-1.1.61.61,0,0,1,.18-.26c-.06-.06,0-.22,0-.35s.1-.05.14-.15,0-.19,0-.25.13,0,.14-.05,0-.22.09-.31.11,0,.14-.05,0-.1,0-.15.2-.23.23-.25.2-.06.27-.1,0-.08,0-.11.27.07.23-.14c.21,0,.41,0,.46-.16h.55a.32.32,0,0,0,.09-.15h.5c.14,0,.12-.13.23-.15h.5c.06,0,0-.09.05-.15s.22,0,.32,0,.14-.13.23-.15.16,0,.23,0,0-.13.09-.15,0,.06.09,0,0-.11.14-.15.1,0,.13,0,.1-.14.14-.15.3,0,.28-.21c.07,0,.08.07.13,0s.05-.13.09-.15.31.08.28-.15c.12,0,.28,0,.36-.05a.31.31,0,0,0,0-.1c.05,0,.13,0,.18,0s.06-.13.09-.15.11,0,.14,0a1,1,0,0,0,.28-.31c.21.07.17-.13.36-.1s.15-.22.28-.3.11,0,.13,0a.87.87,0,0,0,.28-.35c.07,0,.08,0,.09-.1s.13,0,.18,0,0-.1.09-.15.11,0,.14-.05,0-.07,0-.1.11-.16.27-.16a.42.42,0,0,0,.18-.25c.13,0,.1-.08.19,0C94.79,47.1,94.82,47.07,95,47.05Z"/><path class="cls-2" d="M95,47.1c.08,0,.15-.08.22-.1"/><path class="cls-2" d="M90.87,61.93h0"/><path class="cls-2" d="M94.58,54.92h0"/><path class="cls-2" d="M78.11,48.39a.36.36,0,0,1,0-.1"/><path class="cls-2" d="M98.39,47.55l0,.05c0,.18-.22.25-.32.36s0,.07,0,.1a.4.4,0,0,1-.18.15c0,.37-.24.45-.41.6,0,.08,0,.15,0,.16-.09.2-.4.2-.27.5-.16-.06-.12.15-.19.2s-.08,0-.09,0,0,.33-.18.3c.14.25-.14.22-.09.51-.1.06-.15.17-.27.2.08.33-.22.24-.14.56-.06.06-.08,0-.14,0s0,.21,0,.3-.14.07-.14.1,0,.07.05,0c-.05.15-.16.18-.19.25a.11.11,0,0,0,.05.1c0,.06-.12.06-.14.11s.06.28-.13.25,0,.18,0,.25-.13.07-.14.1,0,.15,0,.2-.12.06-.14.1,0,.15,0,.2-.12.07-.14.11,0,.15,0,.2-.12,0-.13,0,0,.18,0,.25-.13,0-.14,0,0,.19,0,.25-.12,0-.14.05,0,.33-.09.46-.18.12-.18.2,0,.06,0,.05-.12.11-.13.15,0,.19,0,.25-.13,0-.14.06.06.28-.14.25c0,.07,0,.18,0,.25s-.11,0-.13,0,0,.19,0,.25-.13,0-.14,0,0,.39-.14.3v.26c-.14-.06-.08.08-.14.15s-.08,0-.09,0,0,.23,0,.3-.13,0-.14,0,.08.13,0,.2-.18.18-.32.21a.35.35,0,0,1,0,.2c-.14,0-.13.34-.27.2v.3a.37.37,0,0,0-.28.45.87.87,0,0,0-.23.16,1.62,1.62,0,0,0-.18.2s0,.15,0,.2l-.09.05a.35.35,0,0,0,0,.25c-.15,0-.05.21-.22.15v.31c-.21-.09-.08.1-.14.25s-.13,0-.14,0,0,.19,0,.25-.12,0-.14.05,0,.19,0,.25-.12,0-.14.06a1,1,0,0,0,0,.3s-.12.11-.18.1a1.74,1.74,0,0,1-.14.4s0,.08,0,.06c-.11.21-.22.21-.31.35s0,.09,0,.1-.2.21-.28.3,0,.19,0,.3c-.24,0-.26.33-.46.41,0,.05,0,.14,0,.2s-.12,0-.14,0,0,.12,0,.15l-.09.05s0,.07,0,.1-.07,0-.09,0a1,1,0,0,0-.23.31H89c-.07.24-.38.22-.5.4-.44-.06-.89.08-1.23,0a1.88,1.88,0,0,1-.19-.1,1.67,1.67,0,0,1-.18,0s0-.14,0-.15-.11.09-.18,0-.13-.2-.19-.31H86.3a1.77,1.77,0,0,0-.41-.5s0-.1,0-.1h-.09s0-.09,0-.1-.08,0-.09,0,0-.08,0-.1a1.31,1.31,0,0,1-.14-.16s0-.11,0-.15-.1-.1-.13-.15l-.1-.05s0-.08,0-.1-.1-.07-.13-.1,0-.12-.14-.1v-.2c0-.13-.14-.07-.18-.1s0-.15-.09-.21-.19-.08-.14-.3a.68.68,0,0,0-.28-.25v-.2c0-.09-.11-.07-.18-.15s0-.17-.09-.21-.11,0-.14,0-.13-.2-.23-.3a6.27,6.27,0,0,1-.64-.7.48.48,0,0,0-.41-.26c-.13-.22-.33-.37-.46-.6-.08,0-.09.06-.18,0a.55.55,0,0,0-.46-.36c0-.14-.13-.11-.13-.25h-.23c0-.22-.26-.25-.32-.45-.07,0-.16,0-.23,0s0-.14,0-.15-.14,0-.18,0a2.13,2.13,0,0,1-.18-.21c-.06-.06-.14-.11-.14-.2H79.8c.06-.22-.17-.1-.13-.3-.21,0-.12-.24-.37-.15-.23-.39-.63-.59-.82-1-.17,0-.12-.18-.28-.15a.28.28,0,0,0-.09-.3s0-.19-.18-.16c.2-.12-.12-.26-.14-.35s.06-.06,0-.1a.39.39,0,0,0-.18-.2.54.54,0,0,0,0-.31s-.09,0-.14,0c0-.23,0-.45-.14-.5,0-.37.09-.9-.13-1.06,0-.24-.06-.46,0-.71,0-.08.12-.15.13-.25,0-.32-.06-.67,0-1,0-.1,0-.1.14-.15,0-.31,0-.69.14-.8,0-.28,0-.51.13-.61a.62.62,0,0,1,.14-.56c-.06-.15,0-.3.09-.35l0,0,0,0c-.08.11,0,.32,0,.45A.33.33,0,0,1,78,49a8.32,8.32,0,0,1,0,1.31.22.22,0,0,1-.14.05v1.56c0,.12.13.06.14.15,0,.35-.08.63,0,.91,0,.07.12.08.14.16s-.06.08,0,.14.11.16.14.26,0,.26,0,.35l.09.05c0,.09,0,.34.19.3-.07.26.14.22.09.46.14.14.26.3.41.45s0,.1.05.1.08,0,.09,0-.07.08,0,.11.25,0,.23.2c.3,0,.35.25.5.4h.19c0,.13.18.17.23.3h.18c.07.07.08.19.18.25s.18,0,.23,0,0,.14,0,.16.17,0,.22,0,.06.24.28.15c0,.12.16.09.14.25.17,0,.13.06.27,0v.15c.14,0,.09,0,.23,0,.1.14.15.34.41.3,0,.19.18.14.18.31.35,0,.29.35.64.3,0,.19.19.19.23.25s0,.11,0,.2.12-.07.23,0c.13.32.41.48.59.76.14,0,.19,0,.28.1a1.24,1.24,0,0,1,.18.2s0,.12,0,.16a5.74,5.74,0,0,0,.41.45,3,3,0,0,0,.41.45c-.1.25.24.4.37.56s.17.4.32.55.28.21.36.36,0,.11,0,.15.18.08.14.2.06,0,.18,0,.12.17.19.25.1,0,.13.05,0,.13,0,.15.14,0,.18,0,.09.14.14.15a1.71,1.71,0,0,0,.32,0c.17-.08.15-.37.46-.3-.05-.25.1-.38.27-.5l.09-.05s0-.13,0-.16.11,0,.14,0,0-.13,0-.15a.21.21,0,0,0,.09-.25c.19-.06.21-.31.41-.35v-.25c0-.06.12,0,.14-.05s0-.2,0-.26.12,0,.13,0,0-.18,0-.25c.41-.13.3-.82.69-1-.14-.24.17-.18.09-.5.34,0,.21-.58.55-.61V58.2c.1,0,.06-.07.09-.1s.26-.17.32-.3,0-.17,0-.21.08,0,.09,0,0-.08,0-.1a1.21,1.21,0,0,0,.14-.1s0-.12.14-.1A.36.36,0,0,0,92,57c.18-.07.23-.28.41-.35,0-.28.16-.33.27-.46V56c.22.08.06-.24.28-.15-.06-.27.13-.26.09-.51.12,0,.16-.2.27-.25,0-.29.21-.24.14-.55.16,0,.15-.18.28-.21,0-.26.2-.21.13-.5.17,0,0-.24.23-.15,0-.28.24-.28.19-.61.12,0,.09-.16.22-.15-.07-.31.22-.23.14-.55.3-.08.24-.55.55-.61v-.25c.11,0,.12-.17.23-.2-.1-.17.13-.27.18-.36s0-.11,0-.1a.43.43,0,0,1,.09-.1c.05-.06.09-.16.22-.2-.08-.1,0-.12,0-.25.16-.06.2-.25.37-.31,0-.34.18-.44.37-.55,0-.12.08-.15,0-.3a2.05,2.05,0,0,0,.23-.2l.14-.16.14-.15.18-.2.23-.25.09,0s0-.09,0-.1.3-.15.32-.35c.28.08.2-.23.46-.16Z"/><path class="cls-2" d="M98.39,47.55c.16,0,.24-.2.39-.25"/><path class="cls-2" d="M105.51,26.11c-.16.07-.15-.15-.19-.2a1.44,1.44,0,0,0-.36-.41c0-.27-.24-.44-.42-.6,0,0,0-.09,0-.1s-.08,0-.09,0,0-.13,0-.15-.09,0-.09,0,0-.12,0-.15-.21-.22-.32-.36-.09-.08-.09-.1,0-.12,0-.15a2.68,2.68,0,0,0-.28-.3c-.08-.09-.15-.23-.28-.26s0-.14.05-.15a2.35,2.35,0,0,0-.27-.3s0-.09,0-.1-.07,0-.09,0-.06-.11-.09-.15l-.09-.1c-.06-.07-.12-.2-.23-.2,0-.2,0-.25-.14-.36s-.16-.19-.27-.3-.33-.36-.51-.55c0,0,0-.09,0-.11s-.14,0-.18-.1,0-.1,0-.15-.09,0-.14-.05,0-.08,0-.1-.07,0-.09,0,0-.11,0-.15-.1,0-.13-.05,0-.12,0-.15-.1,0-.13-.05-.06-.17-.1-.2-.06,0-.09-.06a5.09,5.09,0,0,0-.41-.45s0-.09,0-.1-.07,0-.09,0,0-.08,0-.1-.15-.07-.14-.2h-.23a1.21,1.21,0,0,0-.23-.36s-.24-.06-.13-.2a1.16,1.16,0,0,1-.28-.05s0-.09,0-.1a.49.49,0,0,1-.28-.3h-.23c.05-.16-.08-.09-.14-.15s0-.09,0-.1-.16-.1-.18-.21c-.39.06-.37-.53-.68-.4,0-.12-.16-.09-.14-.25-.11,0-.14-.09-.28-.05,0-.19-.23-.08-.18-.3h-.23a.44.44,0,0,0-.55-.31c.07-.19-.14-.1-.13-.1s-.11-.12-.19-.2h-.31c0-.1.12-.1.13-.2h1.19c0,.22.27.14.46.15v.15c.16,0,.28-.05.36.05s.14.13.41.1c0,.26.33.05.28.3.18-.12.24.13.32.16a.1.1,0,0,0,.09-.05c.08,0,.13.16.18.2s.46,0,.46.25c.07,0,.16,0,.23,0s0,.13,0,.15.37-.05.22.15h.28c0,.14.16.17.18.31h.23c0,.22.27.24.32.45a.31.31,0,0,1,.23,0c.12.3.4.43.55.7h.18c0,.16.15.18.23.26s0,.12.09.15a.78.78,0,0,1,.14.05s-.07.08-.05.1.17.1.23.15.06.18.18.15c-.06.28.13.34.28.51a2.44,2.44,0,0,1,.27.3s0,.09,0,.15a1.45,1.45,0,0,0,.41.41c0,.08,0,.08,0,.15s.12.23.27.25a.31.31,0,0,0,.14.35s0,.12.14.1,0,.15,0,.2.12.06.14.11,0,.15,0,.2.11.06.13.1,0,.14,0,.2.14.08.14.15,0,.07,0,.06c.06.15.17.14.19.19s-.08.1,0,.15.1.05.14.11,0,.11,0,.15.13.1.18.2,0,.11,0,.15.12.07.14.15-.11.19,0,.25.11.39.28.46v.3a.26.26,0,0,0,.13.1v.46C105.51,25.71,105.64,26,105.51,26.11Z"/><path class="cls-2" d="M106.47,42.36a.48.48,0,0,1-.14.2c0,.34.06.78-.14.91,0,.12,0,.23,0,.35s-.12.16-.14.25.1.49-.13.51c.12.39-.25.49-.09.8-.2,0-.17.29-.14.41-.23,0,0,.39-.28.35a.73.73,0,0,1-.09.51c0,.11,0,.22-.18.25s0,.21,0,.3-.08,0-.14.15,0,.18,0,.25-.13.06-.13.11.06.12,0,.25-.14.08-.18.15,0,.28-.14.25a.74.74,0,0,0,0,.35c-.06,0-.17,0-.19.16s0,.36,0,.4c-.16.08-.15.34-.14.61a.17.17,0,0,1-.13,0c0,.3.06.8,0,1.06s-.06.12-.14.16v3a6.11,6.11,0,0,1,0,1c0,.11,0,.1-.14.15v1a.2.2,0,0,1-.14,0c0,.34.1.84-.13,1,0,.09-.06.3,0,.3,0,.18-.15.17-.18.31s.12.19,0,.2c0,.16-.15.07-.14.2a1.21,1.21,0,0,0,0,.45c-.28,0,0,.32-.28.36v.4c-.14-.06-.11.08-.18.1s.11.23,0,.35-.09,0-.09.06.08.32-.14.25c0,.07,0,.17,0,.25s-.12,0-.14,0,.06.32-.13.3V61c-.1.06-.16.18-.28.21s0,.14.05.15c-.12.14-.33.18-.28.5-.16,0-.12.2-.27.2v.26c-.25.09-.32.39-.55.5v.25c-.16,0-.25.24-.36.36a1.42,1.42,0,0,0-.23.25s0,.09,0,.1-.29.12-.27.3c-.26-.09-.3.18-.42.31s-.13,0-.18.1-.05.19-.23.15-.18.3-.41.3c-.05.13-.2.15-.23.3s-.24,0-.27,0,0,0-.19.1,0,.21-.27.16c-.13.21-.2.32-.5.25l0,0,0,0c.1-.08.13-.27.27-.36s.11,0,.14,0a.9.9,0,0,0,.18-.15.78.78,0,0,0,.09-.2s.14.13.09-.1c.2.06.26-.07.37-.2s.09-.15.14-.2.1,0,.14-.05,0-.21.18-.16c0-.28.25-.34.36-.45s0,0,.1-.15a1,1,0,0,1,.18-.15V63.3c.25-.09.32-.39.55-.51a.36.36,0,0,1,.23-.4c0-.28.16-.33.27-.46,0-.29.21-.23.14-.55.2.07.09-.2.27-.15-.09-.22.1-.24.14-.36s0-.26,0-.35.08,0,.09-.05,0-.19,0-.25.13,0,.13,0-.08-.13,0-.2.09-.14.18-.15,0-.21,0-.21.12-.12.14-.2,0-.39.18-.5c0-.11.06-.34,0-.36.18-.08.14-.42.14-.7s.09-.1.14-.15c0-.29-.13-.81.13-.86.06-.38-.08-1,0-1.32,0-.08,0-.13.14-.14v-2c0-.12-.13-.06-.14-.16V51.59a9.68,9.68,0,0,1,0-1.62c0-.09,0-.1.14-.15V49c0-.05.12,0,.13-.1v-.41c0-.1.28-.22.1-.45,0-.1.14-.12.18-.2s-.08-.2,0-.31l.09,0c0-.07,0-.18,0-.25s.24-.38.14-.55c.2,0,0-.38.27-.36v-.4c.17,0,.08-.13.14-.3s.13-.11.14-.16,0-.22,0-.3.06-.07.1-.3.12-.18.13-.25,0-.26,0-.36.23-.24.09-.5c.06-.05.17-.05.19-.15s.05-.37,0-.41a.42.42,0,0,0,.18-.3,1.87,1.87,0,0,1,0-.6.2.2,0,0,1,.13-.06V39.68c0-.13-.09-.1-.13-.15s.1-.71-.14-.76c0-.1.06-.13,0-.2s-.17-.18-.19-.3.1-.29-.09-.35c0-.09,0-.23,0-.31s-.11,0-.13-.1,0-.14,0-.2-.12-.06-.14-.1,0-.14,0-.2-.11,0-.14-.1,0-.15,0-.2-.11-.06-.14-.1,0-.33-.14-.26c0-.1,0-.13.05-.2s-.16-.08-.18-.15.07-.07,0-.1-.2-.19-.27-.3,0-.18,0-.26-.12-.06-.14-.1.06-.06,0-.1-.14-.24-.27-.25c.08-.31-.19-.23-.14-.51a.81.81,0,0,1-.32-.5,1.5,1.5,0,0,0-.23-.2v-.2c-.1-.06-.13-.19-.27-.21s.08-.1,0-.2-.18-.3-.37-.35v-.25c-.12-.15-.29-.24-.41-.41s0-.11,0-.14c-.08-.19-.38-.35-.5-.56,0,0,0-.12,0-.15-.13-.18-.28-.3-.41-.46a4.29,4.29,0,0,0-.28-.35c-.05,0-.17,0-.14-.2,0,0-.1,0-.13,0a2.2,2.2,0,0,1-.09-.21l-.1,0s0-.07,0-.11-.26-.14-.28-.35h-.23c-.17-.16-.23-.45-.54-.45,0-.2-.27-.18-.28-.41-.13,0-.31,0-.32-.2-.14,0-.09,0-.23,0s-.17-.18-.23-.3-.13,0-.13.05c0-.1-.09-.21-.28-.15,0-.18-.18-.14-.18-.31-.07,0-.17,0-.23,0s0-.13,0-.15-.13,0-.18,0-.06-.13-.09-.15-.13,0-.18,0-.06-.14-.09-.15-.17,0-.23,0,0-.13-.05-.15-.23,0-.23-.15c-.14,0-.21,0-.32.05s0-.13,0-.15-.16,0-.23,0a1.42,1.42,0,0,0,0-.16s-.13,0-.18,0-.06-.13-.09-.15-.3,0-.28-.15c-.08,0-.18,0-.27,0s0-.09-.14-.15-.13,0-.18,0-.06-.13-.09-.15-.14,0-.18,0S93,26,92.93,26s-.35,0-.5-.1,0-.12-.05-.15-.18,0-.27-.05a.33.33,0,0,1,0-.1c-.13,0-.28.05-.37-.06s0-.09,0-.09-.29.09-.23-.16c-.08,0-.2,0-.27,0s0-.14,0-.15-.15,0-.19-.05-.08-.1-.09-.1-.16,0-.23,0,0-.14,0-.15-.31.1-.23-.15c-.2.1-.22-.12-.32-.15s-.22,0-.23-.16c-.12.12-.2-.07-.32-.09s-.11,0-.14,0,0-.12,0-.16-.11,0-.14-.05,0-.08,0-.1-.14,0-.14-.15-.13,0-.18,0-.16-.22-.23-.3-.06,0-.09,0l-.05-.05s-.08,0-.09-.06-.05-.14-.09-.15-.07,0,0,.05c-.16-.09-.22-.3-.41-.35.17-.21-.14-.21-.13-.4l0-.05,0-.05c.16,0,.29.18.4.3s.24.15.23.3c.29-.08.21.24.51.15,0,.18.18.14.18.31.07,0,.16,0,.23,0s0,.14,0,.15.16,0,.22,0,.06.15.1.15.11-.07.22,0c0,.22.35.06.33.3.19.08.36-.11.41.15H91v.15c.12,0,.26,0,.36,0s.06.11,0,.11.29,0,.37.05,0,.16.09.15.45-.07.45.15h.37a.22.22,0,0,1,0,.15c.19,0,.42,0,.42.15.1,0,.13-.09.27-.05s0,.14.09.15.53-.1.51.15c.16,0,.44-.08.41.16.12,0,.29-.05.36,0a1.17,1.17,0,0,0,0,.11c.12.05.27-.06.27.15a1.76,1.76,0,0,1,.23,0c.07,0,.15.13.23.15s.13,0,.18,0,.16.13.23.15.2,0,.28,0,.06.14.09.15.22,0,.23.15c.12,0,.29,0,.36.05s0,.1,0,.1.11-.08.18-.05,0,.13,0,.16.17,0,.23,0,0,.17.09.2.09-.07.14-.05.1.18.13.2.09-.07.14,0,.06.14.09.15.22,0,.23.15h.23c0,.17.19.12.18.3s.12-.07.23-.05c-.08.25.2.15.27.2s0,.13,0,.16.08,0,.09,0,0,.08,0,.1.19.07.18.2.1-.06.19-.05c.07.17.14.35.41.3a3.9,3.9,0,0,0,.59.71l.23.25s.1.06.14.1,0,.11,0,.15.15.07.19.1,0,.07,0,.1.1.16.19.26.14.05.18.1,0,.15.09.2.2.12.27.2.08.13.14.2.14.12.14.3c.21.16.3.45.55.56,0,.06,0,.15,0,.2s.07,0,.14.11,0,.08,0,.09.07,0,.09,0,.07.22.18.21v.2c.16.18.38.29.41.6.07.08.12.17.23.21a.46.46,0,0,0,.28.45c-.07.22.14.27.22.4s0,.17,0,.26.12.06.14.1,0,.1,0,.1c.09.16.24.23.32.35s0,.09,0,.1.17.13.18.15-.07.1,0,.15.12.06.14.1,0,.15,0,.21.12.06.14.1,0,.15,0,.2.11.06.13.1,0,.14,0,.2.12.06.14.1,0,.15,0,.2.25.14.09.26a.87.87,0,0,1,.28.75c0,.06.08,0,.13.05,0,.24,0,.46.14.51,0,.25,0,.55.14.6v.46c0,.06.08,0,.14,0v1.61A10.23,10.23,0,0,1,106.47,42.36Z"/><path class="cls-2" d="M97.57,65.77c-.23.06-.35.29-.55.33"/><path class="cls-2" d="M87.58,22.28s.07.15.16.15"/><path d="M143.9,67.64c-.15.18-.63.64-1.42,1.39-1.3,1.23-2.4,2.35-3.33,3.36a10.45,10.45,0,0,1-3.26.53q-4.59,0-6.69-2.67A6.24,6.24,0,0,1,128,67.58a26,26,0,0,1-.3-4.75l.1-7.88V46.71h-.89l-1.75.07h-1.35l-.36-.3v-.86l.26-.49c.4-.27,1-.66,1.85-1.19a19.8,19.8,0,0,0,2.24-1.55V37.91q0-2.8-.26-5.94c1.65-.52,3-1,4-1.4s2.47-1.07,4.34-2l.86.66q-.41,4.08-.56,7.32l-.3,5.7H137c2.39,0,4.46-.08,6.19-.23l.37.36-.46,3.86-.33.33h-6.86V57.75c0,3.58,0,5.7.13,6.33a3.36,3.36,0,0,0,1.17,2.24,4,4,0,0,0,2.72.86,9.52,9.52,0,0,0,3.26-.72Z"/><path d="M184.05,71.83l-.33.36c-2.42-.15-4.46-.23-6.14-.23s-3.77.08-6.72.23l-.33-.33c.4-4.9.59-8.68.59-11.34V54.06q0-8-5.8-8a5.81,5.81,0,0,0-4.81,2.14,6.83,6.83,0,0,0-1.39,4.42v3.89q0,6.69.23,11c.05.86.29,1.39.73,1.59a12,12,0,0,0,3.92.49l.37.33v2l-.33.33Q160.9,72,155,72t-9,.23l-.33-.33v-2l.33-.33a12.12,12.12,0,0,0,3.93-.49q.66-.3.72-1.59.24-4.27.23-15v-11c0-4.61-.07-8.35-.23-11.21a1.82,1.82,0,0,0-.72-1.6,11.47,11.47,0,0,0-3.83-.47l-.33-.37V25.94l.33-.36a64.27,64.27,0,0,0,12.76-2.74l.69.4c0,.59,0,1.68-.1,3.26q-.33,7.88-.33,17.44v1.85l5.81-4.88a12.37,12.37,0,0,1,4.78-.89c3.49,0,6.11,1,7.84,3.16,1.41,1.72,2.11,4.23,2.11,7.55,0,.37,0,1.71-.13,4s-.13,4.41-.13,6.3c0,3.32,0,5.43.16,6.35a2.3,2.3,0,0,0,.76,1.73,9.53,9.53,0,0,0,3.43.42l.3.33Z"/><path d="M216.64,53.47q0,.56,0,1.68l-.36.46a45.36,45.36,0,0,1-11.54,1.19c-.86,0-2.15,0-3.89.05s-3,0-3.92,0a12.42,12.42,0,0,0,3,8,9.62,9.62,0,0,0,7.65,3.39,17.4,17.4,0,0,0,7.51-2.17l.79,1-1.45,3.27A19.11,19.11,0,0,1,204,73.41q-7.41,0-11.52-4.19t-4.1-11.93q0-9.19,4.38-12.59Q198.77,40,204.22,40q5.9,0,9.13,3.39T216.64,53.47Zm-8.6-.86q0-8.89-5.54-8.9-5.83,0-5.83,8.83v.73a51.14,51.14,0,0,0,6.79.3,31.08,31.08,0,0,0,4.55-.3Q208,52.81,208,52.61Z"/><path d="M245,40.12,244.79,46c0,1-.06,2.07-.13,3.3l-1.38.43A4.93,4.93,0,0,0,239,47.47a5.06,5.06,0,0,0-4.09,2,5.59,5.59,0,0,0-1,3.59v7.71q0,2.41.23,6.69a1.82,1.82,0,0,0,.7,1.59c.41.24,1.94.4,4.58.49l.33.3v2l-.33.33q-4.84-.19-9.63-.2-5.89,0-9,.23l-.33-.33v-2l.33-.33a12.12,12.12,0,0,0,3.93-.49q.66-.3.72-1.59c.15-2.85.23-5.92.23-9.19V53.53q0-6.59-.49-7.58a1.75,1.75,0,0,0-1.42-.82c-.26-.05-1.22-.1-2.87-.17l-.33-.33V42.79l.33-.37a56.62,56.62,0,0,0,12.5-2.73l.72.43L234,46.58q2.06-2.37,5-5.54a5.05,5.05,0,0,1,3.69-1.32A6,6,0,0,1,245,40.12Z"/><path d="M22,85.68l-.17,1.54q-.06.51-.12,1.35l-.08,1.08-.14.15h-.78l-.14-.14a5.94,5.94,0,0,0-.21-2.08c-.21-.28-1.46-.41-3.77-.41-.37,0-.95,0-1.74.08-.1.91-.15,2.56-.15,4.93V94l1.53,0q.69,0,2.55-.06a.55.55,0,0,0,.48-.2A4.63,4.63,0,0,0,19.51,92l.13-.14h.84l.13.14c0,1-.05,1.93-.05,2.77s0,1.9.05,3l-.13.12h-.9l-.14-.14a6.05,6.05,0,0,0-.12-1.66c-.15-.31-.62-.5-1.39-.56-.53,0-1.05-.07-1.57-.07s-1.17,0-1.66,0V98.7a29.61,29.61,0,0,0,.18,4.18.58.58,0,0,0,.46.5c.06,0,.7.07,1.93.14l.13.13v.91l-.15.13-5.42-.08c-.77,0-1.84,0-3.21.08l-.14-.12v-.92l.14-.13a14.83,14.83,0,0,0,1.58-.14.6.6,0,0,0,.46-.5,32,32,0,0,0,.17-4.18V91.56a32.05,32.05,0,0,0-.17-4.18.6.6,0,0,0-.46-.5,13.43,13.43,0,0,0-1.58-.13l-.14-.14V85.7l.14-.13c.86.06,2.25.09,4.15.09q1.86,0,9.1-.09Z"/><path d="M48.09,94.64a10.39,10.39,0,0,1-2.9,7.81,10.52,10.52,0,0,1-7.7,2.75,9.88,9.88,0,0,1-7.25-2.59,9.71,9.71,0,0,1-2.63-7.23q0-6.48,5-9a12.18,12.18,0,0,1,5.54-1.14q4.71,0,7.33,2.47A9.06,9.06,0,0,1,48.09,94.64Zm-4.15.7a10.82,10.82,0,0,0-1.57-6.21,5.22,5.22,0,0,0-4.61-2.3,5.16,5.16,0,0,0-5.32,3.6,12,12,0,0,0-.67,4.14,12.15,12.15,0,0,0,1.54,6.59,5.28,5.28,0,0,0,4.76,2.49,5.08,5.08,0,0,0,5.17-3.79A13.61,13.61,0,0,0,43.94,95.34Z"/><path d="M73.46,86.61l-.14.14c-1.06,0-1.66.28-1.79.85a13.44,13.44,0,0,0-.16,2.05c0,.78,0,1.91,0,3.39v4.15q0,4-1.58,5.72a7.74,7.74,0,0,1-6,2.27A10.77,10.77,0,0,1,58.27,104a4.63,4.63,0,0,1-2.19-2.83A32.43,32.43,0,0,1,55.76,95V91.56a29.51,29.51,0,0,0-.18-4.18.58.58,0,0,0-.46-.5,13.17,13.17,0,0,0-1.58-.13l-.13-.14v-.9l.13-.14c.87.06,2.25.09,4.16.09s3.32,0,4.14-.09l.14.14v.9l-.14.14a13.43,13.43,0,0,0-1.58.13.6.6,0,0,0-.46.5,31.84,31.84,0,0,0-.17,4.18v2.78c0,3.4.15,5.49.46,6.25q.91,2.26,4.52,2.27a5.41,5.41,0,0,0,3.68-1.16,3.37,3.37,0,0,0,.86-1.12,6.43,6.43,0,0,0,.38-1.76,20.73,20.73,0,0,0,.12-2.24v-2.8c0-2.36,0-4,0-4.83a6,6,0,0,0-.17-1.58A.79.79,0,0,0,69,87a7.55,7.55,0,0,0-1.66-.2l-.13-.14v-.9l.13-.14c.78.06,1.59.09,2.42.09q.93,0,3.57-.09l.14.14Z"/><path d="M99.62,86.61l-.15.14a13.17,13.17,0,0,0-1.58.13.6.6,0,0,0-.46.5,29.51,29.51,0,0,0-.18,4.18V97q0,6.06.18,7.89l-.18.13c-1-.18-1.78-.3-2.3-.37q-3.61-4.06-12.35-14.81V98.7a29.41,29.41,0,0,0,.18,4.18.58.58,0,0,0,.46.5,14.51,14.51,0,0,0,1.58.14l.13.13v.92l-.13.12c-1,0-2-.08-2.89-.08-1,0-2.08,0-3.12.08l-.13-.12v-.92l.13-.13a14.83,14.83,0,0,0,1.58-.14.6.6,0,0,0,.46-.5A30,30,0,0,0,81,98.7V91.56a30.08,30.08,0,0,0-.17-4.18.6.6,0,0,0-.46-.5,13.43,13.43,0,0,0-1.58-.13l-.13-.14V85.7l.13-.13c.86.06,1.67.09,2.44.09,1.22,0,2.22,0,3-.09q4.86,6.48,11.42,13.89v-7.9a29.51,29.51,0,0,0-.18-4.18.57.57,0,0,0-.45-.5,13.69,13.69,0,0,0-1.58-.13l-.14-.14V85.7l.14-.13c1,.06,2,.09,2.87.09,1.16,0,2.2,0,3.13-.09l.14.13Z"/><path d="M125.52,94a10.37,10.37,0,0,1-3,7.58,10,10,0,0,1-3.54,2.28,13.42,13.42,0,0,1-5.19.82l-4.77-.08c-1.29,0-2.36,0-3.21.08l-.13-.13v-.38l.07-.16a5.2,5.2,0,0,0,1.08-.8,6.83,6.83,0,0,0,.14-1.79l0-3V91.56a30.08,30.08,0,0,0-.17-4.18.6.6,0,0,0-.46-.5,13.17,13.17,0,0,0-1.58-.13l-.13-.14V85.7l.13-.13q1.43.09,2.73.09c2.09,0,4,0,5.66-.09.84,0,1.68,0,2.53,0a14.26,14.26,0,0,1,5.38.8,6.79,6.79,0,0,1,3.21,2.75A9.3,9.3,0,0,1,125.52,94Zm-4.14.64a8.32,8.32,0,0,0-1.81-5.74,5.08,5.08,0,0,0-2.36-1.49,13.77,13.77,0,0,0-3.77-.4,17,17,0,0,0-2.4.17q-.14,1.52-.13,7.31l0,5.9A24.59,24.59,0,0,0,111,103a16.15,16.15,0,0,0,2.43.19,9.58,9.58,0,0,0,4.24-.78,6,6,0,0,0,2.65-2.89A11.07,11.07,0,0,0,121.38,94.65Z"/><path d="M150.94,104.56l-.13.13-3.61-.08c-1.66,0-3.2,0-4.62.08l-.12-.13v-.85l.14-.15,1.17-.07c.5,0,.74-.2.74-.52a4.82,4.82,0,0,0-.37-1.27L143,98.85c-1.24,0-2.51,0-3.8,0l-3.13,0-.6,1.65a10.26,10.26,0,0,0-.67,2.34c0,.35.21.55.63.61.24,0,.7.07,1.38.11l.13.13v.87l-.13.13c-1.66,0-2.73-.08-3.21-.08s-1.28,0-2.74.08l-.14-.12v-.88l.15-.13c.93-.06,1.5-.24,1.71-.55s1-2.19,2.38-5.63l3.52-8.81c.26-.69.66-1.71,1.19-3.09h1.92l7.15,16.82q.42,1,.75,1.08a3.91,3.91,0,0,0,1.28.16l.13.15Zm-8.56-7.26-2.89-7.07-2.76,7.07c.74,0,1.69,0,2.87,0S141.67,97.33,142.38,97.3Z"/><path d="M170.74,85.66a13.73,13.73,0,0,0-.18,2.06l0,2.25-.14.14h-.85L169.4,90a13.36,13.36,0,0,0-.15-2,.9.9,0,0,0-.86-.63c-.18,0-1,0-2.54,0h-1.8q0,.46,0,3.75V98.7a29.41,29.41,0,0,0,.18,4.18.57.57,0,0,0,.45.5,15.16,15.16,0,0,0,1.58.14l.14.13v.91l-.14.13c-.89,0-2.27-.08-4.15-.08s-3.31,0-4.16.08l-.12-.12v-.92l.13-.13a14.51,14.51,0,0,0,1.58-.14.58.58,0,0,0,.46-.5,29.41,29.41,0,0,0,.18-4.18V91c0-2.22,0-3.47,0-3.75h-1.93a12.89,12.89,0,0,0-2.82.15.54.54,0,0,0-.3.2,2.61,2.61,0,0,0-.2.86q-.09.72-.12,1.47l-.14.14h-.85L153.6,90l0-2.31a15.73,15.73,0,0,0-.17-2l.13-.14c.53.09,2.46.14,5.8.14h5.46c3.08,0,5,0,5.8-.14Z"/><path d="M184.27,104.56l-.12.13c-.9,0-2.29-.08-4.17-.08s-3.26,0-4.16.08l-.12-.13v-.91l.14-.13a14.49,14.49,0,0,0,1.57-.14.57.57,0,0,0,.46-.5,29.41,29.41,0,0,0,.18-4.18V91.56a29.51,29.51,0,0,0-.18-4.18.57.57,0,0,0-.46-.5,13.13,13.13,0,0,0-1.57-.13l-.14-.14V85.7l.14-.13c.86.06,2.24.09,4.15.09s3.28,0,4.14-.09l.14.13v.91l-.14.14a13.13,13.13,0,0,0-1.57.13.57.57,0,0,0-.46.5,29.51,29.51,0,0,0-.18,4.18V98.7a29.41,29.41,0,0,0,.18,4.18.57.57,0,0,0,.46.5,14.49,14.49,0,0,0,1.57.14l.14.13Z"/><path d="M210.43,94.64a10.43,10.43,0,0,1-2.9,7.81,10.54,10.54,0,0,1-7.71,2.75,9.86,9.86,0,0,1-7.24-2.59A9.67,9.67,0,0,1,190,95.38q0-6.48,5-9a12.18,12.18,0,0,1,5.54-1.14q4.71,0,7.33,2.47A9.07,9.07,0,0,1,210.43,94.64Zm-4.16.7a10.82,10.82,0,0,0-1.57-6.21,5.21,5.21,0,0,0-4.61-2.3,5.14,5.14,0,0,0-5.31,3.6,12,12,0,0,0-.68,4.14,12.15,12.15,0,0,0,1.54,6.59,5.28,5.28,0,0,0,4.76,2.49,5.08,5.08,0,0,0,5.17-3.79A13.61,13.61,0,0,0,206.27,95.34Z"/><path d="M237.14,86.61l-.15.14a13.43,13.43,0,0,0-1.58.13.6.6,0,0,0-.46.5,31.84,31.84,0,0,0-.17,4.18V97q0,6.06.17,7.89l-.17.13c-1-.18-1.79-.3-2.31-.37q-3.61-4.06-12.34-14.81V98.7a30,30,0,0,0,.17,4.18.6.6,0,0,0,.46.5,14.51,14.51,0,0,0,1.58.14l.13.13v.92l-.13.12c-1,0-2-.08-2.89-.08s-2.07,0-3.12.08l-.13-.12v-.92l.13-.13a14.51,14.51,0,0,0,1.58-.14.58.58,0,0,0,.46-.5,29.41,29.41,0,0,0,.18-4.18V91.56a29.51,29.51,0,0,0-.18-4.18.58.58,0,0,0-.46-.5,13.17,13.17,0,0,0-1.58-.13l-.13-.14V85.7l.13-.13c.86.06,1.67.09,2.45.09,1.21,0,2.22,0,3-.09q4.86,6.48,11.41,13.89v-7.9a31.84,31.84,0,0,0-.17-4.18.6.6,0,0,0-.46-.5,13.43,13.43,0,0,0-1.58-.13l-.13-.14V85.7l.13-.13c1,.06,2,.09,2.87.09,1.17,0,2.21,0,3.13-.09l.14.13Z"/></svg>